<svg xmlns="http://www.w3.org/2000/svg" viewBox="0 0 32 32" fill="none" stroke="#167ffc" stroke-linecap="round" stroke-linejoin="round" xmlns:v="https://vecta.io/nano"><path d="M23.5 27.5h-17l-1-15.19a.76.76 0 0 1 .77-.81H10a1.11 1.11 0 0 1 .89.44l1.22 1.56H23.5v2"/><path d="M26.3 20.7l.84-3.2H9.25l-2.75 10h16.91a1.42 1.42 0 0 0 1.37-1.06l.76-2.88m-9.04.94h0a1.42 1.42 0 0 1 2 0h0m-5-3h1m6 0h1m-.88-17.89C18.25 4 16.5 5.37 16.5 7a2.57 2.57 0 0 0 .7 1.7l-.7 2.8 2.86-1.43a8.12 8.12 0 0 0 2.64.43c3 0 5.5-1.57 5.5-3.5 0-1.6-1.69-2.95-4-3.37m-2.25 2.62l1.5 1.5m0-1.5l-1.5 1.5"/></svg>