<svg width="50" height="50" viewBox="0 0 50 50" fill="none" xmlns="http://www.w3.org/2000/svg">
<path d="M32 25C32 28.866 28.866 32 25 32C21.134 32 18 28.866 18 25C18 21.134 21.134 18 25 18C28.866 18 32 21.134 32 25Z" fill="#93407D"/>
<path d="M32 25C32 28.866 28.866 32 25 32C21.134 32 18 28.866 18 25C18 21.134 21.134 18 25 18C28.866 18 32 21.134 32 25Z" fill="url(#paint0_linear_3358_13531)" fill-opacity="0.2"/>
<path d="M25 46C13.402 46 4 36.5977 4 25C4 13.4023 13.402 4 25 4C36.598 4 46 13.4023 46 25C46 30.7988 43.6495 36.0488 39.8492 39.8496L33.4852 33.4854C35.6568 31.3135 37 28.3135 37 25C37 18.373 31.6274 13 25 13C18.3726 13 13 18.373 13 25C13 31.627 18.3726 37 25 37V46Z" fill="#00CEB3"/>
<path d="M25 46C13.402 46 4 36.5977 4 25C4 13.4023 13.402 4 25 4C36.598 4 46 13.4023 46 25C46 30.7988 43.6495 36.0488 39.8492 39.8496L33.4852 33.4854C35.6568 31.3135 37 28.3135 37 25C37 18.373 31.6274 13 25 13C18.3726 13 13 18.373 13 25C13 31.627 18.3726 37 25 37V46Z" fill="url(#paint1_linear_3358_13531)" fill-opacity="0.2"/>
<path fill-rule="evenodd" clip-rule="evenodd" d="M25 37C21.757 37 18.8146 35.7139 16.655 33.623C16.2326 34.666 16 35.8057 16 37C16 41.9707 20.0294 46 25 46H38C38 41.0294 33.9706 37 29 37H25Z" fill="#93407D"/>
<path fill-rule="evenodd" clip-rule="evenodd" d="M25 37C21.757 37 18.8146 35.7139 16.655 33.623C16.2326 34.666 16 35.8057 16 37C16 41.9707 20.0294 46 25 46H38C38 41.0294 33.9706 37 29 37H25Z" fill="url(#paint2_linear_3358_13531)" fill-opacity="0.2"/>
<defs>
<linearGradient id="paint0_linear_3358_13531" x1="18" y1="18" x2="34.4706" y2="22.1176" gradientUnits="userSpaceOnUse">
<stop stop-color="white"/>
<stop offset="1" stop-color="white" stop-opacity="0"/>
</linearGradient>
<linearGradient id="paint1_linear_3358_13531" x1="4" y1="4" x2="53.4118" y2="16.3529" gradientUnits="userSpaceOnUse">
<stop stop-color="white"/>
<stop offset="1" stop-color="white" stop-opacity="0"/>
</linearGradient>
<linearGradient id="paint2_linear_3358_13531" x1="16" y1="33.623" x2="38.9651" y2="43.8282" gradientUnits="userSpaceOnUse">
<stop stop-color="white"/>
<stop offset="1" stop-color="white" stop-opacity="0"/>
</linearGradient>
</defs>
</svg>
