<svg xmlns="http://www.w3.org/2000/svg" xmlns:xlink="http://www.w3.org/1999/xlink" viewBox="0 0 48 48" xmlns:v="https://vecta.io/nano"><linearGradient id="A" x1="6.414" x2="41.774" y1="13.662" y2="39.488" gradientUnits="userSpaceOnUse"><stop offset="0" stop-color="#28afea"/><stop offset="1" stop-color="#047ed6"/></linearGradient><path fill="url(#A)" d="M6 40V12h36v28c0 1.1-.9 2-2 2H8c-1.1 0-2-.9-2-2z"/><linearGradient id="B" x1="6.42" x2="41.198" y1="6.608" y2="13.68" gradientUnits="userSpaceOnUse"><stop offset="0" stop-color="#0077d2"/><stop offset="1" stop-color="#0b59a2"/></linearGradient><path fill="url(#B)" d="M42 8v6H6V8c0-1.1.9-2 2-2h32c1.1 0 2 .9 2 2z"/><g fill="#fff"><use xlink:href="#H"/><path d="M38 26.5v3a.5.5 0 0 1-.5.5h-3a.5.5 0 0 1-.5-.5v-3a.5.5 0 0 1 .5-.5h3a.5.5 0 0 1 .5.5zm-8 0v3a.5.5 0 0 1-.5.5h-3a.5.5 0 0 1-.5-.5v-3a.5.5 0 0 1 .5-.5h3a.5.5 0 0 1 .5.5zm-8 0v3a.5.5 0 0 1-.5.5h-3a.5.5 0 0 1-.5-.5v-3a.5.5 0 0 1 .5-.5h3a.5.5 0 0 1 .5.5zm-8 0v3a.5.5 0 0 1-.5.5h-3a.5.5 0 0 1-.5-.5v-3a.5.5 0 0 1 .5-.5h3a.5.5 0 0 1 .5.5z"/><use xlink:href="#H" x="-8" y="14"/></g><radialGradient id="C" cx="11.979" cy="11.869" r="14.043" gradientUnits="userSpaceOnUse"><stop offset=".847"/><stop offset="1" stop-opacity="0"/></radialGradient><path fill="url(#C)" d="M6 8v16.635C7.821 25.501 9.85 26 12 26c7.732 0 14-6.268 14-14 0-2.15-.499-4.179-1.365-6H8c-1.1 0-2 .9-2 2z" opacity=".2"/><linearGradient id="D" x1="3.515" x2="20.485" y1="3.515" y2="20.485" gradientUnits="userSpaceOnUse"><stop offset="0" stop-color="#889097"/><stop offset="1" stop-color="#64717c"/></linearGradient><circle cx="12" cy="12" r="12" fill="url(#D)"/><radialGradient id="E" cx="12" cy="12" r="11" gradientUnits="userSpaceOnUse"><stop offset="0"/><stop offset="1" stop-opacity="0"/></radialGradient><circle cx="12" cy="12" r="11" fill="url(#E)"/><radialGradient id="F" cx="11.935" cy="2.232" r="22.284" gradientUnits="userSpaceOnUse"><stop offset="0" stop-color="#fafafb"/><stop offset="1" stop-color="#c8cdd1"/></radialGradient><circle cx="12" cy="12" r="10" fill="url(#F)"/><g fill="#45494d"><path d="M12 12.5a.5.5 0 0 1-.354-.853l5.091-5.091a.5.5 0 0 1 .707.707l-5.091 5.091A.5.5 0 0 1 12 12.5z"/><path d="M11.999 12.75a.74.74 0 0 1-.334-.079l-6-3a.75.75 0 1 1 .67-1.342l6 3a.75.75 0 0 1-.336 1.421z"/></g><circle cx="12" cy="12" r="1.5" fill="#1e2021"/><path d="M35.5 12.5h0a3 3 0 0 1-3-3V6h6v3.5a3 3 0 0 1-3 3z" opacity=".05"/><path d="M35.5 11.75h0a2.25 2.25 0 0 1-2.25-2.25V6h4.5v3.5a2.25 2.25 0 0 1-2.25 2.25z" opacity=".07"/><path fill="#3ccbf4" d="M35.5 11h0A1.5 1.5 0 0 1 34 9.5v-4A1.5 1.5 0 0 1 35.5 4h0A1.5 1.5 0 0 1 37 5.5v4a1.5 1.5 0 0 1-1.5 1.5z"/><defs ><path id="H" d="M38 19.5v3a.5.5 0 0 1-.5.5h-3a.5.5 0 0 1-.5-.5v-3a.5.5 0 0 1 .5-.5h3a.5.5 0 0 1 .5.5zm-8 0v3a.5.5 0 0 1-.5.5h-3a.5.5 0 0 1-.5-.5v-3a.5.5 0 0 1 .5-.5h3a.5.5 0 0 1 .5.5zm-8 0v3a.5.5 0 0 1-.5.5h-3a.5.5 0 0 1-.5-.5v-3a.5.5 0 0 1 .5-.5h3a.5.5 0 0 1 .5.5z"/></defs></svg>