<svg xmlns="http://www.w3.org/2000/svg" viewBox="0 0 64 64" xmlns:v="https://vecta.io/nano"><path fill="#1c94f9" d="M23.5 22c2.9 0 5.6-1.1 7.8-3l5.6-5.1c1.3-1.2 3-1.9 4.8-1.9H53v-1c0-2.2-1.8-4-4-4H14c-2.2 0-4 1.8-4 4v11h13.5z"/><linearGradient id="A" x1="1" x2="63" y1="32" y2="32" gradientUnits="userSpaceOnUse"><stop offset=".002" stop-color="#034a7a"/><stop offset="1" stop-color="#002f49"/></linearGradient><path fill="url(#A)" d="M57 10h-1.1C55.4 7.2 53 5 50 5H14a6.02 6.02 0 0 0-6 6v9H7a6.02 6.02 0 0 0-6 6v27a6.02 6.02 0 0 0 6 6h50a6.02 6.02 0 0 0 6-6V16a6.02 6.02 0 0 0-6-6zm-45 1c0-1.1.9-2 2-2h36c.7 0 1.4.4 1.7 1h-10c-2.3 0-4.5.8-6.2 2.4L30 17.5c-1.8 1.6-4 2.5-6.4 2.5H12v-9zm47 42c0 1.1-.9 2-2 2H7c-1.1 0-2-.9-2-2V26c0-1.1.9-2 2-2h16.5c3.4 0 6.6-1.3 9.1-3.5l5.6-5.1c1-.9 2.2-1.3 3.5-1.3H57c1.1 0 2 .9 2 2V53z"/><linearGradient id="B" x1="10.2" x2="21" y1="41" y2="41" gradientUnits="userSpaceOnUse"><stop offset=".002" stop-color="#034a7a"/><stop offset="1" stop-color="#002f49"/></linearGradient><path fill="url(#B)" d="M12.2 43H19c1.1 0 2-.9 2-2s-.9-2-2-2h-6.8c-1.1 0-2 .9-2 2s.9 2 2 2z"/><linearGradient id="C" x1="10.2" x2="25" y1="49" y2="49" gradientUnits="userSpaceOnUse"><stop offset=".002" stop-color="#034a7a"/><stop offset="1" stop-color="#002f49"/></linearGradient><path fill="url(#C)" d="M23 47H12.2c-1.1 0-2 .9-2 2s.9 2 2 2H23c1.1 0 2-.9 2-2s-.9-2-2-2z"/><linearGradient id="D" x1="24" x2="30" y1="41" y2="41" gradientUnits="userSpaceOnUse"><stop offset=".002" stop-color="#034a7a"/><stop offset="1" stop-color="#002f49"/></linearGradient><path fill="url(#D)" d="M28 39h-2c-1.1 0-2 .9-2 2s.9 2 2 2h2c1.1 0 2-.9 2-2s-.9-2-2-2z"/></svg>