<svg xmlns="http://www.w3.org/2000/svg" viewBox="0 0 48 48" id="document-security"><path fill="#5e8bcc" d="M41,16H38a1,1,0,0,0-1,1V41a1,1,0,0,0,1,1,4.09,4.09,0,0,0,1-.14V42a3,3,0,0,0,3-3V17A1,1,0,0,0,41,16Z"></path><path fill="#e4ebf7" d="M38,6H9A1,1,0,0,0,8,7V17a1,1,0,0,0,1,1h6.59l2.7,2.71A1,1,0,0,0,19,21H34V38a4,4,0,0,0,4,4,1,1,0,0,0,1-1V7A1,1,0,0,0,38,6Z"></path><path fill="#79a1e8" d="M38,40a2,2,0,0,1-2-2V20a1,1,0,0,0-1-1H19.41l-2.7-2.71A1,1,0,0,0,16,16H7a1,1,0,0,0-1,1V38a4,4,0,0,0,2.64,3.75A3.61,3.61,0,0,0,10,42H38a1,1,0,0,0,0-2Z"></path><circle cx="25" cy="13" r="1" fill="#f9d015"></circle><circle cx="29" cy="13" r="1" fill="#f9d015"></circle><circle cx="33" cy="13" r="1" fill="#f9d015"></circle><path fill="#4b31aa" d="M21 14H13a1 1 0 0 1 0-2h8a1 1 0 0 1 0 2zM24 30H18a1 1 0 0 1-1-1V28a4 4 0 0 1 8 0v1A1 1 0 0 1 24 30zm-5-2h4a2 2 0 0 0-4 0z"></path><path fill="#e4ebf7" d="M36,36h3a0,0,0,0,1,0,0v6a0,0,0,0,1,0,0h0a3,3,0,0,1-3-3V36A0,0,0,0,1,36,36Z"></path><rect width="12" height="9" x="15" y="28" fill="#f9d015" rx="3" ry="3"></rect><path fill="#4b31aa" d="M21,34a1,1,0,0,1-1-1V32a1,1,0,0,1,2,0v1A1,1,0,0,1,21,34Z"></path></svg>