<svg height="16" viewBox="0 0 48 48" width="16" xmlns="http://www.w3.org/2000/svg">
  <linearGradient gradientUnits="userSpaceOnUse" id="a" x1="-7.018" x2="39.387" y1="9.308" y2="33.533">
    <stop offset="0" stop-color="#6f8793"/>
    <stop offset=".909" stop-color="#546778"/>
  </linearGradient>
  <path
    d="M44.5 41h-41A2.5 2.5 0 0 1 1 38.5v-31A2.5 2.5 0 0 1 3.5 5h11.597c1.519 0 2.955.69 3.904 1.877L21.5 10h23a2.5 2.5 0 0 1 2.5 2.5v26a2.5 2.5 0 0 1-2.5 2.5z"
    fill="url(#a)"/>
  <linearGradient gradientUnits="userSpaceOnUse" id="b" x1="16.865" x2="44.965" y1="39.287" y2="39.792">
    <stop offset="0" stop-color="#3c525d"/>
    <stop offset=".464" stop-color="#25333e"/>
  </linearGradient>
  <path d="M1 37.875v.625A2.5 2.5 0 0 0 3.5 41h41a2.5 2.5 0 0 0 2.5-2.5v-.625H1z" fill="url(#b)"/>
  <linearGradient gradientUnits="userSpaceOnUse" id="c" x1="-4.879" x2="35.968" y1="12.764" y2="30.778">
    <stop offset=".34" stop-color="#c3d1de"/>
    <stop offset=".549" stop-color="#becddc"/>
    <stop offset=".789" stop-color="#b0c3d5"/>
    <stop offset="1" stop-color="#9eb5cd"/>
  </linearGradient>
  <path
    d="M44.5 11h-23l-1.237.824A6.99 6.99 0 0 1 16.381 13H3.5A2.5 2.5 0 0 0 1 15.5v22A2.5 2.5 0 0 0 3.5 40h41a2.5 2.5 0 0 0 2.5-2.5v-24a2.5 2.5 0 0 0-2.5-2.5z"
    fill="url(#c)"/>
  <radialGradient cx="37.836" cy="49.317" gradientUnits="userSpaceOnUse" id="d" r="53.875">
    <stop offset=".199" stop-color="#728aa4"/>
    <stop offset=".601" stop-color="#95b0cb"/>
    <stop offset=".81" stop-color="#a8bcd0"/>
    <stop offset="1" stop-color="#b4c4d3"/>
  </radialGradient>
  <path
    d="M44.5 40h-41A2.5 2.5 0 0 1 1 37.5v-21A2.5 2.5 0 0 1 3.5 14h13.256a7 7 0 0 0 3.883-1.176L21.875 12H44.5a2.5 2.5 0 0 1 2.5 2.5v23a2.5 2.5 0 0 1-2.5 2.5z"
    fill="url(#d)"/>
  <path
    d="M12 24c0-1.103.897-2 2-2h9c1.103 0 2 .897 2 2s-.897 2-2 2h-9c-1.103 0-2-.897-2-2zm2-3h9c1.103 0 2-.897 2-2s-.897-2-2-2h-9c-1.103 0-2 .897-2 2s.897 2 2 2zm20 11H14c-1.103 0-2 .897-2 2s.897 2 2 2h20c1.103 0 2-.897 2-2s-.897-2-2-2zm0-5H14c-1.103 0-2 .897-2 2s.897 2 2 2h20c1.103 0 2-.897 2-2s-.897-2-2-2zm2-8v5c0 1.103-.897 2-2 2h-5c-1.103 0-2-.897-2-2v-5c0-1.103.897-2 2-2h5c1.103 0 2 .897 2 2zm-2 0h-5v5h5v-5z"
    opacity=".05"/>
  <path
    d="M14 20.5h9a1.5 1.5 0 1 0 0-3h-9a1.5 1.5 0 1 0 0 3zm20 12H14a1.5 1.5 0 1 0 0 3h20a1.5 1.5 0 1 0 0-3zm0-15h-5a1.5 1.5 0 0 0-1.5 1.5v5a1.5 1.5 0 0 0 1.5 1.5h5a1.5 1.5 0 0 0 1.5-1.5v-5a1.5 1.5 0 0 0-1.5-1.5zm0 10H14a1.5 1.5 0 1 0 0 3h20a1.5 1.5 0 1 0 0-3zm-20-2h9a1.5 1.5 0 1 0 0-3h-9a1.5 1.5 0 1 0 0 3z"
    opacity=".07"/>
  <path
    d="M35 34a1 1 0 0 1-1 1H14a1 1 0 1 1 0-2h20a1 1 0 0 1 1 1zm-1-6H14a1 1 0 1 0 0 2h20a1 1 0 1 0 0-2zm-20-3h9a1 1 0 1 0 0-2h-9a1 1 0 1 0 0 2zm0-5h9a1 1 0 1 0 0-2h-9a1 1 0 1 0 0 2zm20-2h-5a1 1 0 0 0-1 1v5a1 1 0 0 0 1 1h5a1 1 0 0 0 1-1v-5a1 1 0 0 0-1-1z"
    fill="#fff"/>
</svg>
