<svg height="256" width="390" xmlns="http://www.w3.org/2000/svg" xmlns:xlink="http://www.w3.org/1999/xlink"
>
    <defs>
        <path d="M.06.345h333.203v255.437H.06z" id="A"/>
        <path d="M124.288 56.505c-.018-.012-.034-.025-.053-.034.02.01.035.022.053.034" id="B"/>
        <path d="M136.357 42.365c-.084.944-.623 1.667-1.204 1.615s-.983-.86-.9-1.803.623-1.667 1.204-1.615.983.86.9 1.803"
              id="C"/>
    </defs>
    <g fill="none" fill-rule="evenodd">
        <g transform="translate(50.876 .122)">
            <mask fill="#fff" id="D">
                <use xlink:href="#A"/>
            </mask>
            <path d="M251.807 2.235c-62.175-11.38-80.145 31.297-116.967 56.79-14.224 9.85-23.883-1.944-36.4-8.383C66.685 34.324.06 48.952.06 134.983c0 56.12 53.485 120.8 171.228 120.8 63.153 0 161.974-44.884 161.974-134.35 0-65.988-29.14-109.62-81.457-119.198"
                  fill="#1a90e5" mask="url(#D)"/>
        </g>
        <path d="M363.506 197.324c9.51-11.068 5.77-28.263-8.823-28.263H82.743c-15.612 0-25.502 18.644-15.128 30.31 56.873 63.963 245.112 57.045 295.892-2.048"
              fill="#c6b0c6"/>
        <path d="M365.713 190.22c9.51-11.068 1.12-28.263-13.47-28.263H80.3c-15.612 0-25.503 18.644-15.13 30.31 56.873 63.963 249.76 57.045 300.54-2.048"
              fill="#fffefc"/>
        <path d="M127.815 163.742c-3.115 1.376-6.27 2.22-9.43 2.15l.135 8.546c4.216-.046 8.195-.235 11.947-.537-1.366-3.225-2.225-6.68-2.65-10.158"
              fill="#fff"/>
        <g fill="#3f210a">
            <path d="M319.298 49.807c-2.828 2.962-10.37 15.895-11.873 17.083-2.392.45-4.794.85-7.2 1.237-2.716.44 5.978-5.838 3.862-4.456-.743-.55-6.86-.962-7.267-1.147-7.71-3.516-21.972-27.3-10.955-34.27 10.42-6.58 28.763-2.288 28.763-2.288s-1.913 5.607.03 6.606c-1.98 4.514.2 3.797 1.432 8.82.74 3.043 1.826 5.8 3.207 8.413"/>
            <path d="M329.35 112.412c10.272-9.126 12.628-16.128 15.575-25.517s-8.284-17.564-16.57-22.534-5.416-19.364-4.558-28.873c.742-8.213-7.476-15.103-13.592-15.418-22.057-1.14-22.212 4.46-20.017 8.53-4.473 7.246.4 42.057-15.517 52.994s30.074 52.678 54.68 30.82"/>
        </g>
        <path d="M290.974 152.207l4.583.313c6.4.384 12.822.048 19.218.488 2.37.162 4.684.493 7 .94 3.786-29.308 4.217-65.12 4.232-70.544-.512.102-2.266-.594-7.536-4.173-9.627-6.54-10.958-26.56-10.958-26.56l-14.588 12.103c-.014.01 15.56 5.518-1.08 17.194-.01.127-.026.256-.06.4-.736 2.843-2.24 5.342-3.54 7.947 2.16 8.15 2.654 39.796 2.728 61.902"
              fill="#e5b5b5"/>
        <path d="M319.936 48.022c-.15-.165-3.187-9.95-3.187-9.95s6.422-10.603-29.396-5.303c-4.467.66-5.908 21.466 5.347 34.314 5.717 6.527 19.638-10.63 19.638-10.63 5.468 3.405 7.938-8.057 7.597-8.433"
              fill="#f9c3c0"/>
        <path d="M293.144 56.03l4.114.783c.16-1.096-2.052-.82-2.418-2.286l-1.794-8.56c-.075.044.097 10.065.097 10.065m-1.967.918l-.002-.038 1.213-.442 3.952.618c.534 1.27-.7 1.852-2.08 1.83-.644-1.05-1.692-1.828-3.082-1.97"
              fill="#e2afaf"/>
        <path d="M280.927 86.16l-19.215 52.118c-15.46-11.696-42.427-15.34-44.945-21.376 0 0-3.706-4.732-4.246-4.977s-1.08-1.092-1.08-1.092-.18-1.436-.768-1.797-.772-1.274-.772-1.274-.815-1.312-1.875-.354c-2.098 2.237-.194 3.594.775 4.814s-1.094 2.81-1.72 3.62-1.83.89-2.91.402-2.754.31-2.754.31-.892-.1-1.522-.498-6.83-1.057-8.157-1.61-1.61.554-1.61.554l5.814 5.905c.513.447 3.098.898 4.5 2.127s6.658 1.424 6.658 1.424 4.116-1.04 6.145-.78c5.523.33 26.4 31.372 56.498 29.152l11.66-20.47c5.952-5.765 6.924-46.684-.485-46.2"
              fill="#f9c3c0"/>
        <path d="M285.8 162.17l45.36-.275c-.24-25.04 2.87-39.202 3.994-40.85-.67 1.92 7.336-35.11 5.893-37.384-1.55-2.443-3.456-4.176-7.125-4.326-4.17-.17-15.024-2.01-19.438-4.194 0 0 1.576 16.146-15.466 16.723-9.442.32-7.158-9.272-5.834-10.78-.344.267-12 4.363-12 4.363l-4.2 23.898c-2.703 4.09 5.257 17.7 9.305 28.85 3.472 9.572-.47 23.973-.47 23.973"
              fill="#1f63ae"/>
        <path d="M335.52 122.642l-.377-1.145c.043.305.177.695.377 1.145m-.464-1.417l.087.27c-.025-.18-.02-.332.02-.45-.034.05-.07.1-.107.178"
              fill="#f4cd0c"/>
        <path d="M298.122 42.068c3.492-2.077 7.897-.578 7.897-.578s-2.714-1.795-5.043-1.63-2.854 2.208-2.854 2.208m-7.4 1.058c-3.968-.873-7.678 1.934-7.678 1.934s2-2.557 4.275-3.133 3.403 1.2 3.403 1.2"
              fill="#3f210a"/>
        <path d="M299.052 45.77c.117 1.016.718 1.782 1.343 1.7s1.038-.954.92-1.97-.718-1.782-1.343-1.7-1.038.954-.92 1.97m-12.81 1.7c.117 1.016.718 1.782 1.343 1.7s1.038-.953.92-1.97-.718-1.782-1.343-1.7-1.038.954-.92 1.97"
              fill="#363350"/>
        <path d="M298.766 45.325c.064.555.392.973.734.934s.566-.52.503-1.075-.392-.973-.733-.934-.567.52-.503 1.076m-12.7 1.84c.064.555.392.972.733.934s.567-.52.503-1.075-.392-.973-.733-.934-.567.52-.503 1.076"
              fill="#fff"/>
        <path d="M300.32 59.175s-.55.715-1.224.897c-.798.216-1.787-.08-2.47.176-1.263.472-.652 1.49-1.622 1.29.518.81 3.57 4.497 5.317-2.362"
              fill="#935844"/>
        <path d="M304.725 20.317c11.374.405 16.66 9.12 15.285 19.235-.086.637-1.655 3.295-1.678 3.247-2.657-5.76-6.01 3.098-7.08 9.222-4.483-3.67-1.68-11.14-1.68-11.14S294.605 37.766 290 31.368c0 0-6.192-11.796 14.725-11.05"
              fill="#3f210a"/>
        <g fill="#f9c3c0">
            <path d="M341.057 83.664c-1.55-2.443-3.456-4.176-7.125-4.326l-.538-.03c-4.497 5.935-5.946 14.41-5.666 21.627.187 4.797 1.61 9.46 3.368 13.9.973 2.456 2.372 4.78 3.624 7.156.802 1.517 6.01 9.725 6.13 9.546 1.457 2.1 2.43 2.46 2.43 2.46.07 3.74 7.742-20.188 7.742-20.188-4.254-4.57-8.52-27.87-9.964-30.145"/>
            <path d="M388.074 81c-1.084.942-6.76 3.52-7.234 4.096s-1.288.953-1.288.953-1.84-.232-2.712.572-2.037 1.103-2.887.535-3.31-1.43-2.773-2.892 1.915-3.35-.78-4.813c-1.308-.576-1.668.926-1.668.926s.113.924-.33 1.452-.162 1.948-.162 1.948-.228.997-.682 1.377c-3.314 2.773-3.085 7.143-4.036 10.8-.533.018-6.38 7.332-12.524 15.344-8.884 11.582-12.104 17.42-12.104 17.42 2.798 7.275 8.218 9.783 8.218 9.783s8.527-2.582 15.098-18.856l7.954-19.937c2.344-2.418 4.923-4.57 6.478-4.366 0 0 4.917-1.837 5.87-3.45s3.264-2.854 3.61-3.44 3.657-7.436 3.657-7.436-.62-.96-1.703-.018"/>
        </g>
        <path d="M113.782 201.073l58.123-4.968 16.708 4.164-3.045.852 3.285.83-29.86 11.83c-1.667.79-4.45 9.58-4.45 9.58L113.953 202.9l-.17-1.826z"
              fill="#fff9f5"/>
        <path d="M170.962 190.834l-57.428 12.296s-.932.476.746 2.3l41.01 20.4 61.83-19.537a1.59 1.59 0 0 0 1.053-1.217l.04-.207c-5.046-.364-26.268.852-26.268.852l-20.982-14.887z"
              fill="#c6b0c6"/>
        <path d="M170.19 189.067l-56.334 13.813s-1.2.456-.17 1.255l41.522 19.707 15.305-5.637c1.667-.79 20.66-14.25 20.66-14.25l-20.98-14.887z"
              fill="#bfcde2"/>
        <path d="M211.18 202.22l-22.63-10.337-55.478 15.753 23.777 11.09 54.33-16.505" fill="#fff"/>
        <path d="M224.967 158.86s3.15-.89 2.765 2.263-9.417 43.785-9.417 43.785l-62.618 19.085-1.317-.617 8.287-47.115s-.235-2.57 4.116-3.128 58.184-14.273 58.184-14.273"
              fill="#dfeafb"/>
        <path d="M349.2 190.137l-58.123-4.968-16.708 4.164 3.045.852-3.285.83 29.86 11.83c1.667.79 4.45 9.58 4.45 9.58l40.592-20.463.17-1.826z"
              fill="#fff9f5"/>
        <path d="M292.02 179.898l57.428 12.295s.932.476-.746 2.3l-41.01 20.4-61.83-19.536a1.59 1.59 0 0 1-1.053-1.217l-.04-.208c5.046-.364 26.268.852 26.268.852l20.98-14.887z"
              fill="#c6b0c6"/>
        <path d="M292.793 178.13l56.334 13.813s1.2.456.172 1.256l-41.523 19.706-15.304-5.637c-1.668-.79-20.66-14.25-20.66-14.25l20.98-14.887z"
              fill="#bfcde2"/>
        <path d="M251.802 191.284l22.63-10.336L329.91 196.7l-23.777 11.088-54.33-16.505" fill="#fff"/>
        <path d="M238.015 147.925s-3.15-.89-2.764 2.262 9.417 43.786 9.417 43.786l62.618 19.084 1.317-.617-8.287-47.115s.235-2.57-4.116-3.128-58.185-14.273-58.185-14.273"
              fill="#dfeafb"/>
        <path d="M149.175 123.3c7.19 8.003 12.75 22.924 12.75 22.924l18.722 11.016s.983-32.673-15.06-56.865c-.098.12-23.602 14.92-16.413 22.924"
              fill="#f9c3c0"/>
        <g fill="#113a63">
            <path d="M113.106 73.752c-23.163 6.82-39.62 18.214-39.62 18.214s18.756 32.96 6.736 69.877l62.172 3.15s-5.59-15.887 2.572-31.18c6.01-11.26 9.23-23.802 9.638-36.56l.358-11.25s-28.267-16.25-41.855-12.25"/>
            <path d="M155.082 86.008l-10.8 28.746 15.837 31.154c-11.31-.75-26.44 20.328-41.745 19.984l.136 8.546c43.817-.482 62.216-16.278 62.216-16.278 1.266-53.173-25.654-72.152-25.654-72.152"/>
        </g>
        <path d="M139.104 62.05s-13.02-29.923-13.272-12.853-19.45 27.808-19.45 27.808c-.046.063 8.46 21.15 30.587 18.222 11.953-1.582 5.13-14.27 5.13-14.27-5.455-4.28-2.982-18.9-2.994-18.908"
              fill="#e5b5b5"/>
        <g fill="#342c50">
            <use xlink:href="#B"/>
            <path d="M122.4 44.138c.004-.003-.057.046 0 0"/>
            <use xlink:href="#B"/>
        </g>
        <path d="M73.842 92.19c-6.472 4.792-15.918 26.355-20.372 37.193-3.698-2.95-7.293-7.16-9.965-14.557-3.15 2.294-6.955 3.844-10.805 4.407 2.362 14.547 4.63 35.213 26.406 34.315l.15-.26.122.26c5.737-9.483 11.777-16.188 16.8-20.745 10.567-9.608 11.71-25.95 2.26-36.657-2.525-2.86-4.584-3.956-4.584-3.956"
              fill="#113a63"/>
        <path d="M32.476 117.87c3.258-1.997 6.97-3.353 10.72-3.895-.526-1.546-1.013-3.225-1.453-5.055 0 0 1.628-10.987-8.986-20.037-.653-.557-1.366-1.76-1.366-1.76s-.01-2.097-.793-2.72-.89-1.967-.89-1.967-.944-2.03-2.636-.834c-3.408 2.854-.904 5.137.28 7.06s-2.06 3.855-3.105 4.908-2.787.964-4.255.073-4.017-.03-4.017-.03-1.266-.298-2.104-.98-9.646-2.707-11.457-3.732S0 89.422 0 89.422l7.34 9.506c.66.732 4.302 1.83 6.12 3.845s14.68 8.315 17.573 8.41c.576 1.91 1.02 4.19 1.442 6.7"
              fill="#f9c3c0"/>
        <path d="M43.714 115.417c-.726-1.93-1.4-4.08-1.97-6.496l.058-.632c-3.156 2.022-6.842 3.343-10.53 3.735.564 2.102 1.003 4.6 1.44 7.282.963-.112 6.862-.212 11.002-3.9m70.81-44.966l-3.934-.678s-1.356 3.663-9.224 7.325c.86 9.902 15.463 20.347 20.2 20.754 4.612-2.17 4.476-3.12 4.476-3.12l3.272.498 2.425.18-2.577-9.63s-17.905-10.58-14.65-15.328M133.7 95.3l1.974-9.205s4.703-2.35 3.256-11.033l2.893.905s2.713 5.787 5.064 6.15c1.085 3.075 3.256 9.586-1.447 12.48l-2.713-1.447s-4.868 3.598-9.028 2.15"
              fill="#fff"/>
        <path d="M119.876 166.57s-3.807-2.77-4.34-4.476c-3.527-1.492-7.2 2.577-7.2 2.577s-9.088-2.035-7.325 2.713c-.27 2.035-2.306 3.256.68 6.104.678 3.4 1.492 6.647 3.662 6.783l6.104.542s8.274-5.154 11.53-6.104c.27-3.527-3.12-8.14-3.12-8.14m4.573-109.433c-.02-.01-.036-.022-.056-.03.02.007.037.02.056.03m-.095-3.1s3.54 12.094 13.177 12.882c12.03.984 18.016-41.375 10.34-42.285-33.3-3.947-27.438 8.096-27.438 8.096l-3.07 11.886c-.32.463 1.863 13.766 7 9.42"
              fill="#f9c3c0"/>
        <path d="M139.3 14.653c-13.174-1.712-27.754 4.308-24.036 12.723-1.222.732-5.046 1.486-3.268 8.238s5.556 10.89 5.556 10.89 1.464-14.9 6.85.4l1.67-.8c-4.313-8.11 2.186-12.006 2.186-12.006s-2.803-2.313-2.5-5.297c0 0 4.094 4.85 14.036 3.526l-2.485-3.756c3.95 4.723 10.522 4.06 10.522 4.06l-.552-3.23 4.114 2.32c6.794-1.988 4.115-14.96-12.095-17.066"
              fill="#491e15"/>
        <path d="M142.204 51.565l-3.792.82c-.173-1.012 1.882-.808 2.186-2.174l1.46-7.97c.07.04.146 9.324.146 9.324"
              fill="#e2afaf"/>
        <path d="M138.077 39.155s.388-2.116-3.975-2.14c-5.113-.03-4.564 1.98-4.564 1.98s-2.17-2.746 2.237-3.258c8.57-.995 6.303 3.42 6.303 3.42"
              fill="#935844"/>
        <g fill="#363350">
            <use xlink:href="#C"/>
            <use x="11.903" xlink:href="#C" y="1.265"/>
        </g>
        <path d="M144.16 39.943c.604-1.452 1.85-1.417 3.172-1.305 3.77.318 3.68 1.82 3.68 1.82s1.673-2.57-3.594-3.06c-2.33-.216-3.02 1.632-3.02 1.632l-.238.913z"
              fill="#935844"/>
        <path d="M136.476 42.334c-.046.515-.34.9-.658.882s-.537-.47-.5-.984.34-.9.657-.882.537.47.5.984m11.823 1.306c-.046.515-.34.9-.657.882s-.537-.47-.5-.984.34-.9.657-.882.537.47.5.984"
              fill="#fff"/>
        <path d="M143.532 52.764l.001-.035-1.133-.38-3.645.665c-.465 1.2.692 1.7 1.97 1.647.572-.987 1.524-1.732 2.808-1.896"
              fill="#e2afaf"/>
        <path d="M137.146 56.74l1.585.656c.418.173.722.245.94.29a.86.86 0 0 1 .084.03c.03.005.058-.003.087.005.06.01.116.04.19.033.072.002.146.018.234.03.088-.012.185-.01.29-.007.214.014.45-.053.737-.048.282-.035.572-.086.96-.08l.1.098-.597.578c-.236.15-.448.338-.707.453-.49.278-1.096.38-1.664.274-.57-.125-1.06-.464-1.447-.865s-.7-.872-.92-1.387l.127-.057z"
              fill="#935844"/>
    </g>
</svg>