<svg version="1.1" xmlns="http://www.w3.org/2000/svg" xmlns:xlink="http://www.w3.org/1999/xlink" width="16" height="16" viewBox="0,0,256,256"><defs><linearGradient x1="16.86" y1="1.533" x2="29.576" y2="41.546" gradientUnits="userSpaceOnUse" id="color-1"><stop offset="0" stop-color="#c77740"></stop><stop offset="1" stop-color="#b0622b"></stop></linearGradient><linearGradient x1="24" y1="36.966" x2="24" y2="40.893" gradientUnits="userSpaceOnUse" id="color-2"><stop offset="0.442" stop-color="#878786"></stop><stop offset="0.594" stop-color="#9f9f9e"></stop><stop offset="0.859" stop-color="#c3c3c3"></stop><stop offset="1" stop-color="#d1d1d1"></stop></linearGradient><linearGradient x1="24.93" y1="9.928" x2="23.046" y2="2.091" gradientUnits="userSpaceOnUse" id="color-3"><stop offset="0" stop-color="#c3cdd9"></stop><stop offset="1" stop-color="#9fa7b0"></stop></linearGradient></defs><g fill="none" fill-rule="nonzero" stroke="none" stroke-width="1" stroke-linecap="butt" stroke-linejoin="miter" stroke-miterlimit="10" stroke-dasharray="" stroke-dashoffset="0" font-family="none" font-weight="none" font-size="none" text-anchor="none" style="mix-blend-mode: normal"><g transform="translate(0,5.33333) scale(5.33333,5.33333)"><path d="M38,4h-12c0,1.105 -0.895,2 -2,2c-1.105,0 -2,-0.895 -2,-2h-12c-1.105,0 -2,0.895 -2,2v36c0,1.105 0.895,2 2,2h28c1.105,0 2,-0.895 2,-2v-36c0,-1.105 -0.895,-2 -2,-2z" fill="url(#color-1)"></path><path d="M37,42h-26c-0.552,0 -1,-0.448 -1,-1v-9h28v9c0,0.552 -0.448,1 -1,1z" fill="url(#color-2)"></path><path d="M37,40h-26c-0.552,0 -1,-0.448 -1,-1v-32c0,-0.552 0.448,-1 1,-1h26c0.552,0 1,0.448 1,1v32c0,0.552 -0.448,1 -1,1z" fill="#f3f3f3"></path><path d="M31,8v-4h-4.184c-0.413,-1.163 -1.512,-2 -2.816,-2c-1.304,0 -2.403,0.837 -2.816,2h-4.184v4c0,0.552 0.448,1 1,1h12c0.552,0 1,-0.448 1,-1zM24,4c0.552,0 1,0.448 1,1c0,0.552 -0.448,1 -1,1c-0.552,0 -1,-0.448 -1,-1c0,-0.552 0.448,-1 1,-1z" fill="url(#color-3)"></path><path d="M33.5,18h-19c-0.276,0 -0.5,-0.224 -0.5,-0.5v-1c0,-0.276 0.224,-0.5 0.5,-0.5h19c0.276,0 0.5,0.224 0.5,0.5v1c0,0.276 -0.224,0.5 -0.5,0.5z" fill="#195bbc"></path><path d="M29.5,22h-15c-0.276,0 -0.5,-0.224 -0.5,-0.5v-1c0,-0.276 0.224,-0.5 0.5,-0.5h15c0.276,0 0.5,0.224 0.5,0.5v1c0,0.276 -0.224,0.5 -0.5,0.5z" fill="#195bbc"></path><path d="M33.5,26h-19c-0.276,0 -0.5,-0.224 -0.5,-0.5v-1c0,-0.276 0.224,-0.5 0.5,-0.5h19c0.276,0 0.5,0.224 0.5,0.5v1c0,0.276 -0.224,0.5 -0.5,0.5z" fill="#195bbc"></path><path d="M33.5,34h-19c-0.276,0 -0.5,-0.224 -0.5,-0.5v-1c0,-0.276 0.224,-0.5 0.5,-0.5h19c0.276,0 0.5,0.224 0.5,0.5v1c0,0.276 -0.224,0.5 -0.5,0.5z" fill="#195bbc"></path><path d="M29.5,30h-15c-0.276,0 -0.5,-0.224 -0.5,-0.5v-1c0,-0.276 0.224,-0.5 0.5,-0.5h15c0.276,0 0.5,0.224 0.5,0.5v1c0,0.276 -0.224,0.5 -0.5,0.5z" fill="#195bbc"></path></g></g><g fill="none" fill-rule="nonzero" stroke="none" stroke-width="none" stroke-linecap="butt" stroke-linejoin="miter" stroke-miterlimit="10" stroke-dasharray="" stroke-dashoffset="0" font-family="none" font-weight="none" font-size="none" text-anchor="none" style="mix-blend-mode: normal"><g transform="translate(107.42857,104) scale(6.85714,6.85714)" id="overlay" stroke="none" stroke-width="1"><path d="M20,11c0,5.522 -4.479,10 -10,10c-5.522,0 -10,-4.478 -10,-10c0,-5.522 4.478,-10 10,-10c5.521,0 10,4.477 10,10" fill="#7cb342"></path><path d="M10,11v-10c-2.761,0 -5.261,1.119 -7.071,2.929z" fill="#dcedc8"></path><path d="M12.961,4.664c-0.732,0.814 -1.782,1.336 -2.961,1.336c-1.179,0 -2.229,-0.522 -2.962,-1.336c-2.384,1.116 -4.038,3.53 -4.038,6.336c0,3.866 3.133,7 7,7c3.866,0 7,-3.134 7,-7c0,-2.806 -1.655,-5.219 -4.039,-6.336z" fill="#ffffff"></path><path d="M6.017,1.83c-0.002,0.058 -0.017,0.112 -0.017,0.17c0,2.206 1.794,4 4,4c2.206,0 4,-1.794 4,-4c0,-0.058 -0.015,-0.113 -0.017,-0.17c-1.221,-0.532 -2.567,-0.83 -3.983,-0.83c-1.416,0 -2.762,0.298 -3.983,0.83z" fill="#dcedc8"></path><path d="M9.711,12.089l1.348,-1.348l-7.439,-7.44c-0.49,0.407 -0.941,0.859 -1.345,1.35z" fill="#000000"></path><path d="M11.5,11c0,0.828 -0.672,1.5 -1.5,1.5c-0.828,0 -1.5,-0.672 -1.5,-1.5c0,-0.828 0.672,-1.5 1.5,-1.5c0.828,0 1.5,0.672 1.5,1.5" fill="#000000"></path><path transform="translate(10,2)" d="M-2,0c0,-1.10457 0.89543,-2 2,-2c1.10457,0 2,0.89543 2,2c0,1.10457 -0.89543,2 -2,2c-1.10457,0 -2,-0.89543 -2,-2z" fill="#33691e"></path></g></g></svg>