<svg version="1.1" xmlns="http://www.w3.org/2000/svg" xmlns:xlink="http://www.w3.org/1999/xlink" width="16" height="16" viewBox="0,0,256,256"><defs><linearGradient x1="24" y1="34.987" x2="24" y2="41.012" gradientUnits="userSpaceOnUse" id="color-1"><stop offset="0" stop-color="#a1aab3"></stop><stop offset="1" stop-color="#8f979e"></stop></linearGradient><linearGradient x1="8.364" y1="7.308" x2="38.396" y2="32.647" gradientUnits="userSpaceOnUse" id="color-2"><stop offset="0" stop-color="#a1aab3"></stop><stop offset="1" stop-color="#8f979e"></stop></linearGradient><radialGradient cx="48.44204" cy="56.85442" r="67.21279" gradientUnits="userSpaceOnUse" id="color-3"><stop offset="0.323" stop-color="#23d9d6"></stop><stop offset="0.427" stop-color="#23d4d7"></stop><stop offset="0.542" stop-color="#21c7dc"></stop><stop offset="0.664" stop-color="#1fb0e2"></stop><stop offset="0.789" stop-color="#1c91ec"></stop><stop offset="0.917" stop-color="#1969f8"></stop><stop offset="0.944" stop-color="#1860fb"></stop></radialGradient><linearGradient x1="24" y1="33.989" x2="24" y2="39.01" gradientUnits="userSpaceOnUse" id="color-4"><stop offset="0" stop-color="#484b4f"></stop><stop offset="0.028" stop-color="#565b61"></stop><stop offset="0.066" stop-color="#626a72"></stop><stop offset="0.114" stop-color="#6b757d"></stop><stop offset="0.181" stop-color="#717b84"></stop><stop offset="0.367" stop-color="#727d86"></stop></linearGradient></defs><g fill="none" fill-rule="nonzero" stroke="none" stroke-width="1" stroke-linecap="butt" stroke-linejoin="miter" stroke-miterlimit="10" stroke-dasharray="" stroke-dashoffset="0" font-family="none" font-weight="none" font-size="none" text-anchor="none" style="mix-blend-mode: normal"><g transform="translate(0.00045,0) scale(5.33333,5.33333)"><path d="M14,38v-3h20v3l13,0.335v1.665c0,0.552 -0.448,1 -1,1h-44c-0.552,0 -1,-0.448 -1,-1v-1.419z" fill="url(#color-1)"></path><path d="M42,34h-36c-1.105,0 -2,-0.895 -2,-2v-23c0,-1.105 0.895,-2 2,-2h36c1.105,0 2,0.895 2,2v23c0,1.105 -0.895,2 -2,2z" fill="url(#color-2)"></path><rect x="6" y="9" width="36" height="23" fill="url(#color-3)"></rect><path d="M46.909,38.335l-2.867,-3.584c-0.379,-0.475 -0.954,-0.751 -1.561,-0.751h-36.962c-0.608,0 -1.182,0.276 -1.562,0.751l-2.867,3.584c-0.214,0.268 -0.023,0.665 0.32,0.665h14.966c0.382,0 0.73,-0.217 0.898,-0.56l0.431,-0.88c0.168,-0.343 0.516,-0.56 0.898,-0.56h10.793c0.382,0 0.73,0.217 0.898,0.56l0.431,0.88c0.168,0.343 0.516,0.56 0.898,0.56h14.967c0.343,0 0.534,-0.397 0.319,-0.665z" fill="url(#color-4)"></path></g></g><g fill="none" fill-rule="nonzero" stroke="none" stroke-width="none" stroke-linecap="butt" stroke-linejoin="miter" stroke-miterlimit="10" stroke-dasharray="" stroke-dashoffset="0" font-family="none" font-weight="none" font-size="none" text-anchor="none" style="mix-blend-mode: normal"><g transform="translate(72,56) scale(5.6,5.6)" id="overlay" stroke="none" stroke-width="1"><path d="M20,10c0,5.5 -4.5,10 -10,10c-5.5,0 -10,-4.5 -10,-10c0,-5.5 4.5,-10 10,-10c5.5,0 10,4.5 10,10" fill="#43a047"></path><path d="M14.5,5.4l-5.7,5.6l-2.7,-2.7l-2.1,2.2l4.8,4.8l7.8,-7.8z" fill="#dcedc8"></path></g></g></svg>