<svg height="16" viewBox="0 0 48 48" width="16" xmlns="http://www.w3.org/2000/svg"
     xmlns:xlink="http://www.w3.org/1999/xlink">
    <defs>
        <linearGradient gradientUnits="userSpaceOnUse" id="a" x1="18.387" x2="29.104" y1="17.577" y2="47.023">
            <stop offset="0" stop-color="#dfe9f2"/>
            <stop offset=".391" stop-color="#d6e0e9"/>
            <stop offset="1" stop-color="#bfc8d1"/>
        </linearGradient>
        <linearGradient id="b" x1="18.389" x2="29.105" xlink:href="#a" y1="17.579" y2="47.022"/>
        <linearGradient gradientUnits="userSpaceOnUse" id="c" x1="17.57" x2="30.201" y1="6.333" y2="41.037">
            <stop offset="0" stop-color="#2aa4f4"/>
            <stop offset="1" stop-color="#007ad9"/>
        </linearGradient>
        <linearGradient gradientUnits="userSpaceOnUse" id="d" x1="17.865" x2="29.092" y1="-1.858" y2="28.989">
            <stop offset="0" stop-color="#4caf50"/>
            <stop offset=".489" stop-color="#4aaf50"/>
            <stop offset=".665" stop-color="#43ad50"/>
            <stop offset=".79" stop-color="#38aa50"/>
            <stop offset=".892" stop-color="#27a550"/>
            <stop offset=".978" stop-color="#11a050"/>
            <stop offset="1" stop-color="#0a9e50"/>
        </linearGradient>
    </defs>
    <path
            d="M41.506 33.865 25.002 43.42a2 2 0 0 1-2.004 0L6.495 33.865a1 1 0 0 1 0-1.731l16.511-9.556a2 2 0 0 1 2.004 0l16.496 9.555a1 1 0 0 1 0 1.731z"
            fill="url(#a)"/>
    <path
            d="M41.51 33.86 25 43.42a1.987 1.987 0 0 1-2 0L6.5 33.87a1.004 1.004 0 0 1 0-1.74l5.27-3.05 1-.58 10.24-5.92a1.987 1.987 0 0 1 2 0l10.23 5.92.49.29.5.29 5.28 3.05a1.003 1.003 0 0 1 0 1.73z"
            fill="url(#b)"/>
    <path
            d="m41.506 24.866-16.504 9.555a2 2 0 0 1-2.004 0L6.495 24.866a1 1 0 0 1 0-1.731l16.511-9.556a2 2 0 0 1 2.004 0l16.496 9.555a1 1 0 0 1 0 1.731z"
            fill="url(#c)"/>
    <path
            d="m35.73 28.79-.49-.29L25 34.42a1.987 1.987 0 0 1-2 0L12.77 28.5l-1 .58 10.73 6.21a3.012 3.012 0 0 0 3 0l10.73-6.21z"
            opacity=".05"/>
    <path
            d="M35.24 28.5 25 34.42a1.987 1.987 0 0 1-2 0L12.77 28.5l-.5.29 10.48 6.06a2.468 2.468 0 0 0 2.5 0l10.48-6.06z"
            opacity=".07"/>
    <path
            d="M41.506 15.865 25.002 25.42a2 2 0 0 1-2.004 0L6.495 15.865a1 1 0 0 1 0-1.731l16.511-9.556a2 2 0 0 1 2.004 0l16.496 9.555a1 1 0 0 1 0 1.731z"
            fill="url(#d)"/>
    <path d="M35.23 19.5 25 25.42a1.987 1.987 0 0 1-2 0L12.78 19.5l-1 .58 10.72 6.21a3.012 3.012 0 0 0 3 0l10.73-6.21z"
          opacity=".05"/>
    <path
            d="M35.23 19.5 25 25.42a1.987 1.987 0 0 1-2 0L12.78 19.5l-.5.29 10.47 6.06a2.468 2.468 0 0 0 2.5 0l10.48-6.06z"
            opacity=".07"/>
</svg>
