<svg height="16" viewBox="0 0 48 48" width="16" xmlns="http://www.w3.org/2000/svg">
  <linearGradient gradientUnits="userSpaceOnUse" id="a" x1="12.686" x2="35.58" y1="4.592" y2="41.841">
    <stop offset="0" stop-color="#33bef0"/>
    <stop offset="1" stop-color="#0a85d9"/>
  </linearGradient>
  <path
    d="M42 8H6a2 2 0 0 0-2 2v26a2 2 0 0 0 2 2h8v7.998c0 .891 1.077 1.337 1.707.707L24.412 38H42a2 2 0 0 0 2-2V10a2 2 0 0 0-2-2z"
    fill="url(#a)"/>
  <path
    d="M28.11 29.877a2.006 2.006 0 0 1-2.005-2.002V26H14c-1.103 0-2-.897-2-2v-2c0-1.103.897-2 2-2h12.105v-1.875c0-1.104.899-2.002 2.005-2.002a1.97 1.97 0 0 1 1.271.462l5.893 4.873c.461.382.726.943.726 1.542a1.99 1.99 0 0 1-.726 1.541l-5.896 4.876c-.36.301-.8.46-1.268.46z"
    opacity=".05"/>
  <path
    d="M28.11 29.377c-.83 0-1.505-.674-1.505-1.502V25.5H14a1.5 1.5 0 0 1-1.5-1.5v-2a1.5 1.5 0 0 1 1.5-1.5h12.605v-2.375c0-.828.675-1.502 1.505-1.502.349 0 .678.119.951.347l5.895 4.874c.346.286.544.707.544 1.156s-.198.87-.544 1.156l-5.896 4.875a1.467 1.467 0 0 1-.95.346z"
    opacity=".07"/>
  <path
    d="m34.637 22.229-5.895-4.875a1 1 0 0 0-1.637.771V21H14a1 1 0 0 0-1 1v2a1 1 0 0 0 1 1h13.105v2.875a1 1 0 0 0 1.637.771l5.895-4.875a1 1 0 0 0 0-1.542z"
    fill="#fff"/>
</svg>
