<?xml version="1.0" encoding="utf-8"?>
<svg height="16" viewBox="0 0 48 48" width="16" xmlns="http://www.w3.org/2000/svg">
  <linearGradient gradientTransform="matrix(-1 0 0 1 48 0)" gradientUnits="userSpaceOnUse" id="jqRAop7tyWoUQ0CkVwCu6a"
                  x1="8.663" x2="38.122"
                  y1="8.059" y2="32.915">
    <stop offset="0" stop-color="#a1aab3"/>
    <stop offset="1" stop-color="#8f979e"/>
  </linearGradient>
  <path d="M7,35h34c1.105,0,2-0.895,2-2V9c0-1.105-0.895-2-2-2H7C5.895,7,5,7.895,5,9v24C5,34.105,5.895,35,7,35z"
        fill="url(#jqRAop7tyWoUQ0CkVwCu6a)"/>
  <radialGradient cx="72.516" cy="158.294" gradientTransform="matrix(.8095 0 0 .7188 -11.619 -54.844)"
                  gradientUnits="userSpaceOnUse"
                  id="jqRAop7tyWoUQ0CkVwCu6b" r="86.245">
    <stop offset=".323" stop-color="#23d9d6"/>
    <stop offset=".444" stop-color="#23d4d8"/>
    <stop offset=".579" stop-color="#24c7de"/>
    <stop offset=".721" stop-color="#26b0e8"/>
    <stop offset=".867" stop-color="#2891f6"/>
    <stop offset=".944" stop-color="#297eff"/>
  </radialGradient>
  <rect fill="url(#jqRAop7tyWoUQ0CkVwCu6b)" height="24" width="34" x="7" y="9"/>
  <linearGradient gradientUnits="userSpaceOnUse" id="jqRAop7tyWoUQ0CkVwCu6c" x1="16.462" x2="31.425" y1="33.571"
                  y2="48.533">
    <stop offset="0" stop-color="#007ccf"/>
    <stop offset=".317" stop-color="#0074c7"/>
    <stop offset=".818" stop-color="#005eb0"/>
    <stop offset="1" stop-color="#0055a6"/>
  </linearGradient>
  <path
    d="M24,32.857c-7.18,0-13,4.23-13,8.589v1.161C11,43.376,11.624,44,12.393,44h23.214C36.376,44,37,43.376,37,42.607v-1.161C37,37.087,31.18,32.857,24,32.857z"
    fill="url(#jqRAop7tyWoUQ0CkVwCu6c)"/>
  <path
    d="M28.179,34.086c0,1.585-2.365,2.343-4.179,2.343s-4.179-0.757-4.179-2.343c0-2.204,0-5.88,0-5.88h8.357C28.179,28.206,28.179,31.882,28.179,34.086z"
    fill="#d6a121"/>
  <linearGradient gradientUnits="userSpaceOnUse" id="jqRAop7tyWoUQ0CkVwCu6d" x1="31.351" x2="32.59" y1="26.357"
                  y2="26.357">
    <stop offset="0" stop-color="#c48f0c"/>
    <stop offset=".251" stop-color="#d19b16"/>
    <stop offset=".619" stop-color="#dca51f"/>
    <stop offset="1" stop-color="#e0a922"/>
  </linearGradient>
  <path
    d="M31.351,24.5h-0.49v3.714h0.653c0.478,0,0.886-0.29,0.966-0.687l0.32-1.582C32.953,25.19,32.261,24.5,31.351,24.5z"
    fill="url(#jqRAop7tyWoUQ0CkVwCu6d)"/>
  <linearGradient gradientTransform="matrix(-1 0 0 1 -56 0)" gradientUnits="userSpaceOnUse" id="jqRAop7tyWoUQ0CkVwCu6e"
                  x1="-72.649" x2="-71.41"
                  y1="26.357" y2="26.357">
    <stop offset="0" stop-color="#c48f0c"/>
    <stop offset=".251" stop-color="#d19b16"/>
    <stop offset=".619" stop-color="#dca51f"/>
    <stop offset="1" stop-color="#e0a922"/>
  </linearGradient>
  <path
    d="M16.649,24.5h0.49v3.714h-0.653c-0.478,0-0.886-0.29-0.966-0.687l-0.32-1.582C15.047,25.19,15.739,24.5,16.649,24.5z"
    fill="url(#jqRAop7tyWoUQ0CkVwCu6e)"/>
  <radialGradient cx="-12.518" cy="78.093" gradientTransform="translate(35.037 -45.216) scale(.8816)"
                  gradientUnits="userSpaceOnUse"
                  id="jqRAop7tyWoUQ0CkVwCu6f" r="10.09">
    <stop offset="0" stop-color="#ffcf54"/>
    <stop offset=".261" stop-color="#fdcb4d"/>
    <stop offset=".639" stop-color="#f7c13a"/>
    <stop offset="1" stop-color="#f0b421"/>
  </radialGradient>
  <path
    d="M24,13.481c-3.666,0-7.429,0.557-7.429,8.481c0,0.634,0,4.851,0,5.528c0,2.829,4.457,6.295,7.429,6.295s7.429-3.467,7.429-6.295c0-0.677,0-4.894,0-5.528C31.429,14.038,27.666,13.481,24,13.481z"
    fill="url(#jqRAop7tyWoUQ0CkVwCu6f)"/>
  <linearGradient gradientUnits="userSpaceOnUse" id="jqRAop7tyWoUQ0CkVwCu6g" x1="20.15" x2="28.734" y1="12.866"
                  y2="32.857">
    <stop offset="0" stop-color="#c26715"/>
    <stop offset=".508" stop-color="#b85515"/>
    <stop offset="1" stop-color="#ad3f16"/>
  </linearGradient>
  <path
    d="M24,12.429c2.786,0,4.643,1.857,4.643,1.857c1.479,0.218,3.714,0.929,3.714,4.643c0,1.382-0.929,5.929-0.929,8.5S27,33.823,24,33.823s-7.429-2.966-7.429-6.394s-0.929-7.292-0.929-8.5C15.643,16.062,18.811,12.429,24,12.429z"
    fill="url(#jqRAop7tyWoUQ0CkVwCu6g)"/>
  <radialGradient cx="-28.79" cy="68.49" gradientTransform="matrix(-.8431 0 0 .8816 1.265 -45.216)"
                  gradientUnits="userSpaceOnUse"
                  id="jqRAop7tyWoUQ0CkVwCu6h" r="28.922">
    <stop offset="0" stop-color="#c26715"/>
    <stop offset=".508" stop-color="#b85515"/>
    <stop offset="1" stop-color="#ad3f16"/>
  </radialGradient>
  <path
    d="M23.706,12.429c4.008,0,4.937,1.857,4.937,1.857c0.034,0.942-1.122,1.688-1.122,1.688s-0.619,1.33-4.144,1.33c-2.129,0-5.18-1.328-5.18-4.875C18.196,12.429,18.882,12.429,23.706,12.429z"
    fill="url(#jqRAop7tyWoUQ0CkVwCu6h)"/>
</svg>
